<svg width="1200" height="1100" viewBox="0 0 1200 1100" xmlns="http://www.w3.org/2000/svg"><style>
        .comp { stroke: #2c3e50; stroke-width: 2.5; rx: 8; fill-opacity: 0.95; }
        .label { font-family: Arial; font-size: 16px; font-weight: bold; fill: #ffffff; text-anchor: middle; }
        .pin-txt { font-family: 'Courier New', monospace; font-size: 12px; fill: #ecf0f1; }
        .wire { fill: none; stroke-width: 2.5; stroke-linecap: round; stroke-linejoin: round; }
        .rail { fill: none; stroke-width: 4; stroke-opacity: 0.3; }
        .junction { fill: #2c3e50; }
        .note { font-family: Arial; font-size: 13px; fill: #34495e; }
    </style><g><rect x="450" y="400" width="300" height="450" class="comp" style="fill:#005C94" /><text x="600" y="385" class="note" style="font-weight:bold">Arduino Uno R3</text><text x="460" y="460" class="pin-txt">5V</text><text x="460" y="500" class="pin-txt">GND</text><text x="460" y="540" class="pin-txt">A4</text><text x="460" y="580" class="pin-txt">A5</text><text x="740" y="460" class="pin-txt" style="text-anchor: end">D12</text><text x="740" y="500" class="pin-txt" style="text-anchor: end">D11</text><text x="740" y="540" class="pin-txt" style="text-anchor: end">D10</text></g><g><rect x="80" y="500" width="180" height="200" class="comp" style="fill:#004D40" /><text x="170" y="485" class="note" style="font-weight:bold">OLED Display</text><text x="250" y="560" class="pin-txt" style="text-anchor: end">VCC</text><text x="250" y="600" class="pin-txt" style="text-anchor: end">GND</text><text x="250" y="640" class="pin-txt" style="text-anchor: end">SDA</text><text x="250" y="680" class="pin-txt" style="text-anchor: end">SCL</text></g><g><rect x="900" y="200" width="220" height="220" class="comp" style="fill:#7B4216" /><text x="1010" y="185" class="note" style="font-weight:bold">JSN-SR04T Sensor</text><text x="910" y="260" class="pin-txt">VCC</text><text x="910" y="300" class="pin-txt">Trig</text><text x="910" y="340" class="pin-txt">Echo</text><text x="910" y="380" class="pin-txt">GND</text></g><g><rect x="900" y="500" width="220" height="180" class="comp" style="fill:#4D2424" /><text x="1010" y="485" class="note" style="font-weight:bold">SSR Relay Module</text><text x="910" y="560" class="pin-txt">VCC</text><text x="910" y="600" class="pin-txt">GND</text><text x="910" y="640" class="pin-txt">IN</text></g><path d="M 50 50 H 1150" stroke="red" class="rail" /><path d="M 50 80 H 1150" stroke="#7f8c8d" class="rail" /><text x="60" y="45" class="note" style="fill:red">5V POWER RAIL</text><text x="60" y="100" class="note" style="fill:#7f8c8d">GND RAIL</text><path d="M 450 455 H 430 V 50" stroke="red" class="wire" /><circle cx="430" cy="50" r="4" class="junction" /><path d="M 450 495 H 410 V 80" stroke="#7f8c8d" class="wire" /><circle cx="410" cy="80" r="4" class="junction" /><path d="M 260 555 H 300 V 50" stroke="red" class="wire" /><circle cx="300" cy="50" r="4" class="junction" /><path d="M 260 595 H 320 V 80" stroke="#7f8c8d" class="wire" /><circle cx="320" cy="80" r="4" class="junction" /><path d="M 900 255 H 850 V 50" stroke="red" class="wire" /><circle cx="850" cy="50" r="4" class="junction" /><path d="M 900 375 H 870 V 80" stroke="#7f8c8d" class="wire" /><circle cx="870" cy="80" r="4" class="junction" /><path d="M 900 555 H 830 V 50" stroke="red" class="wire" /><circle cx="830" cy="50" r="4" class="junction" /><path d="M 900 595 H 810 V 80" stroke="#7f8c8d" class="wire" /><circle cx="810" cy="80" r="4" class="junction" /><path d="M 450 535 H 350 V 635 H 260" stroke="green" class="wire" /><path d="M 450 575 H 370 V 675 H 260" stroke="teal" class="wire" /><path d="M 750 455 H 780 V 295 H 900" stroke="orange" class="wire" /><path d="M 750 495 H 800 V 335 H 900" stroke="gold" class="wire" /><path d="M 750 535 H 820 V 635 H 900" stroke="brown" class="wire" /><g transform="translate(100, 950)"><rect width="1000" height="100" rx="10" style="fill:#f8f9fa; stroke:#dee2e6" /><text x="20" y="30" class="note" style="font-weight:bold">ROUTING KEY</text><text x="20" y="60" class="note">&#8226; Parallel lines are offset by 20px to prevent superimposition.</text><text x="20" y="85" class="note">&#8226; All Power/GND route to the shared Top Rails via dedicated vertical channels.</text></g></svg>